<svg width="200" height="27" viewBox="0 0 200 27" fill="none" xmlns="http://www.w3.org/2000/svg">
<g clip-path="url(#clip0_1_2)">
<path d="M106.103 16.6128V20.9269H101.427V16.6128H106.103Z" fill="white"/>
<path d="M4.71592 20.927V10.0325H0L0.0295762 6.91493H4.71592V5.98443C4.69695 4.89246 5.04402 3.82174 5.70967 2.91869C6.37218 2.02184 7.31171 1.3242 8.52829 0.825747C9.83405 0.306883 11.2445 0.0501601 12.666 0.0726141C13.9122 0.0590204 15.1531 0.225204 16.3438 0.565152C17.3567 0.84625 18.296 1.31672 19.1032 1.94726C19.8338 2.54121 20.2774 3.21158 20.4342 3.95833L15.8646 5.08121C15.682 4.54483 15.3009 4.08466 14.7881 3.78096C14.2205 3.4373 13.5532 3.26079 12.8745 3.2748C11.9271 3.2748 11.2005 3.55766 10.6947 4.12342C10.189 4.68918 9.93661 5.42775 9.93758 6.33915V6.91493H19.402V10.0325H9.93758V20.9256L4.71592 20.927Z" fill="white"/>
<path d="M23.1399 20.9266V0.617981H28.3304V20.9266H23.1399Z" fill="white"/>
<path d="M139.94 0.0834808V4.55043H134.681V0.0834808H139.94Z" fill="white"/>
<path d="M174.66 0.0834808V4.55043H169.401V0.0834808H174.66Z" fill="white"/>
<path d="M109.379 20.928V6.91598H114.601V10.5561C114.947 9.71188 115.5 8.95303 116.217 8.33903C116.966 7.70597 117.843 7.21501 118.798 6.89415C119.867 6.53623 120.998 6.3601 122.135 6.37432C123.895 6.37432 125.437 6.72542 126.763 7.42763C128.075 8.11884 129.144 9.14313 129.844 10.3788C130.575 11.6458 130.941 13.0916 130.942 14.7161V20.928H125.751V14.8525C125.77 13.8877 125.526 12.9339 125.041 12.0788C124.593 11.2929 123.915 10.6387 123.085 10.1905C122.208 9.73326 121.214 9.50189 120.207 9.52056C119.201 9.5063 118.208 9.73739 117.329 10.1905C116.481 10.6358 115.783 11.2894 115.312 12.0788C114.806 12.9388 114.551 13.9055 114.573 14.8839V20.9321L109.379 20.928Z" fill="white"/>
<path d="M139.902 6.91603H134.681V20.9281H139.902V6.91603Z" fill="white"/>
<path d="M174.642 6.91603H169.422V26.4414H174.642V6.91603Z" fill="white"/>
<path d="M144.236 20.9281V6.91596H149.457V10.5561C149.803 9.7118 150.357 8.95297 151.074 8.33901C151.822 7.70612 152.697 7.21516 153.65 6.89413C154.719 6.53634 155.85 6.36023 156.987 6.37432C158.746 6.37432 160.289 6.7254 161.615 7.42761C162.929 8.12031 164 9.1465 164.7 10.3842C165.43 11.6512 165.796 13.097 165.797 14.7215V20.9335H160.607V14.8525C160.626 13.8878 160.382 12.934 159.898 12.0787C159.45 11.2909 158.772 10.6351 157.939 10.1864C157.063 9.72896 156.069 9.49756 155.063 9.51646C154.056 9.50208 153.064 9.73316 152.185 10.1864C151.336 10.633 150.638 11.2881 150.169 12.0787C149.662 12.9385 149.408 13.9054 149.43 14.8839V20.9321L144.236 20.9281Z" fill="white"/>
<path d="M191.077 20.4903C189.455 21.1478 187.606 21.4768 185.53 21.4768C184.138 21.4955 182.752 21.3112 181.422 20.931C180.204 20.5672 179.26 20.0746 178.588 19.4534C177.917 18.8322 177.581 18.15 177.58 17.4068C177.58 16.5882 177.946 15.831 178.677 15.1352C179.409 14.4393 180.431 13.8663 181.743 13.4161C183.193 12.9422 184.704 12.6432 186.237 12.5265L193.742 11.9807C194.02 11.9512 194.285 11.8573 194.512 11.7079C194.612 11.649 194.693 11.5682 194.75 11.473C194.807 11.3777 194.838 11.2709 194.839 11.1621C194.839 10.872 194.607 10.5941 194.143 10.3285C193.677 10.0638 193.045 9.86324 192.244 9.72544C191.377 9.5838 190.499 9.51529 189.619 9.52078C188.37 9.52284 187.124 9.62784 185.895 9.83459C184.712 10.0264 183.55 10.3197 182.426 10.7105C181.367 11.0862 180.529 11.4923 179.912 11.9289L177.954 9.38435C178.743 8.81768 179.771 8.30195 181.039 7.83716C182.377 7.35259 183.764 6.99066 185.18 6.75657C186.642 6.50376 188.128 6.37541 189.616 6.37318C191.382 6.35627 193.142 6.58206 194.836 7.04309C196.414 7.4906 197.67 8.12732 198.604 8.9532C199.539 9.77909 200.003 10.7414 199.997 11.8402V20.9255H194.777V17.8639C193.932 18.9581 192.699 19.8336 191.077 20.4903ZM183.334 17.6033C183.69 17.8325 184.199 18.0044 184.862 18.1231C185.61 18.2491 186.371 18.3089 187.132 18.3019C188.381 18.3139 189.626 18.1618 190.829 17.8503C191.946 17.5483 192.851 17.1421 193.544 16.6319C194.237 16.1216 194.652 15.5558 194.789 14.9346V14.3889L187.284 14.9346C186.498 14.9946 185.719 15.1183 184.956 15.3044C184.384 15.4301 183.845 15.6582 183.368 15.9756C182.992 16.2485 182.805 16.5323 182.805 16.8242C182.805 17.1162 182.979 17.3755 183.334 17.6033Z" fill="white"/>
<path d="M61.3005 11.2673C62.0492 11.283 62.7615 11.5684 63.285 12.0624C63.8084 12.5564 64.1014 13.2199 64.1014 13.9107C64.1014 14.6016 63.8084 15.265 63.285 15.7591C62.7615 16.2531 62.0492 16.5385 61.3005 16.5542H38.6482C37.8997 16.5385 37.1874 16.2531 36.6639 15.7591C36.1405 15.265 35.8473 14.6016 35.8473 13.9107C35.8473 13.2199 36.1405 12.5564 36.6639 12.0624C37.1874 11.5684 37.8997 11.283 38.6482 11.2673H61.3005ZM61.3005 6.90128H38.6482C36.6358 6.90848 34.7079 7.64944 33.2852 8.96263C31.8625 10.2758 31.0602 12.0547 31.053 13.9114C31.0589 15.7701 31.8618 17.551 33.2862 18.8653C34.7108 20.1795 36.641 20.9203 38.6557 20.9256H61.3005C63.3148 20.9199 65.2448 20.179 66.669 18.8648C68.0932 17.5506 68.8959 15.7698 68.9018 13.9114C68.897 12.0525 68.0949 10.2708 66.6705 8.9559C65.2461 7.64103 63.3155 6.89988 61.3005 6.89447V6.90128Z" fill="white"/>
<path d="M75.4879 20.927L71.612 6.89447H76.7878L79.7453 18.7945L82.6469 6.89447H89.8665L92.824 18.9309L95.7535 6.89447H100.872L97.1436 20.927H89.0101L86.2862 9.07746L83.5342 20.9243L75.4879 20.927Z" fill="white"/>
</g>
<defs>
<clipPath id="clip0_1_2">
<rect width="200" height="26.4984" fill="white"/>
</clipPath>
</defs>
</svg>
