<svg width="200" height="27" viewBox="0 0 200 27" fill="none" xmlns="http://www.w3.org/2000/svg">
<g clip-path="url(#clip0_1_15)">
<path d="M17.7137 25.6988C9.00305 28.9502 -0.617958 21.7986 0.0307932 12.5032C0.356451 4.1156 9.19793 -1.99497 17.1291 0.60516C19.4702 1.38469 18.3651 4.83102 16.0239 4.1156C11.0185 2.55654 5.62339 5.41566 4.12844 10.421C2.63349 15.4264 5.42851 20.8216 10.4339 22.3165C15.4393 23.8115 20.8344 21.0165 22.3294 16.0111C22.5243 15.2957 22.7191 14.5161 22.7191 13.8007C22.7832 12.7596 23.6294 11.9801 24.6705 12.0442C25.7116 12.1083 26.4911 12.9545 26.427 13.9956C26.168 19.3266 22.7217 23.9423 17.7163 25.6962L17.7137 25.6988Z" fill="#131A29"/>
<path d="M14.0725 17.7035C13.6187 17.7676 13.0981 17.5727 12.7725 17.2496L8.48251 13.4802C6.79268 11.9211 9.06716 9.31843 10.8878 10.8159L13.8136 13.4161L20.7703 6.00544C22.3294 4.24894 24.9962 6.59008 23.4346 8.41069L15.3085 17.1214C14.9828 17.5112 14.529 17.706 14.0725 17.706V17.7035Z" fill="#3F7940"/>
<path d="M39.0508 21.3601C38.2764 21.3601 37.5456 21.2037 36.8789 20.8985C36.2096 20.5908 35.6403 20.1446 35.1865 19.5728C35.0557 19.4061 34.989 19.2318 34.989 19.06C34.989 18.801 35.1172 18.5779 35.3685 18.3984C35.5378 18.2881 35.707 18.2343 35.8762 18.2343C36.1763 18.2343 36.425 18.3599 36.6147 18.6112C36.8865 18.9651 37.2378 19.2395 37.6532 19.4266C38.0712 19.6138 38.5533 19.7113 39.0841 19.7113C39.579 19.7113 40.038 19.5908 40.4406 19.3523C40.8432 19.1138 41.1714 18.7599 41.415 18.3009C41.6586 17.8368 41.7842 17.2752 41.7842 16.6291V16.2342C41.4765 16.6778 41.097 17.0393 40.6483 17.3111C40.0944 17.6496 39.461 17.8189 38.7661 17.8189C37.9661 17.8189 37.2378 17.624 36.6045 17.2393C35.9711 16.8547 35.4711 16.3137 35.1198 15.6316C34.7685 14.9521 34.5916 14.1725 34.5916 13.3109C34.5916 12.4494 34.7839 11.6519 35.1608 10.9724C35.5403 10.2903 36.0762 9.74922 36.7583 9.36458C37.4404 8.98251 38.2225 8.78763 39.0841 8.78763C39.9457 8.78763 40.7098 8.98251 41.3842 9.36458C42.0612 9.74922 42.5997 10.2903 42.9817 10.9698C43.3638 11.6493 43.5587 12.4365 43.5587 13.3109V16.7393C43.5587 17.5906 43.3664 18.3753 42.9894 19.0779C42.6099 19.7805 42.0714 20.3421 41.3842 20.7472C40.697 21.1524 39.9123 21.3575 39.0508 21.3575V21.3601ZM39.0815 10.4364C38.5636 10.4364 38.0943 10.5595 37.684 10.8031C37.2763 11.0467 36.9507 11.3878 36.7173 11.8237C36.484 12.2596 36.366 12.7622 36.366 13.3109C36.366 13.8597 36.484 14.3597 36.7173 14.7905C36.9507 15.2213 37.2763 15.5623 37.684 15.8034C38.0943 16.047 38.5636 16.1701 39.0815 16.1701C39.5995 16.1701 40.0688 16.047 40.479 15.8034C40.8893 15.5598 41.2098 15.2213 41.4381 14.7905C41.6663 14.3597 41.7842 13.8597 41.7842 13.3109C41.7842 12.7622 41.6688 12.2596 41.4381 11.8211C41.2098 11.3852 40.8893 11.0442 40.479 10.8006C40.0688 10.557 39.5995 10.4339 39.0815 10.4339V10.4364Z" fill="#101F2F"/>
<path d="M49.5154 17.8342C48.7692 17.8342 48.0897 17.6701 47.4948 17.3445C46.8947 17.0188 46.4229 16.5342 46.0844 15.9111C45.7485 15.288 45.5793 14.5315 45.5793 13.6597V9.75435C45.5793 9.49279 45.6665 9.26971 45.8408 9.0979C46.0152 8.92353 46.2357 8.83635 46.4973 8.83635C46.7588 8.83635 46.9794 8.92353 47.1537 9.0979C47.3281 9.27227 47.4153 9.49279 47.4153 9.75435V13.6597C47.4153 14.4828 47.6358 15.1085 48.0717 15.5264C48.5102 15.9444 49.1 16.1547 49.8308 16.1547C50.2564 16.1547 50.6488 16.0675 50.9975 15.8957C51.3437 15.7239 51.6181 15.4905 51.8129 15.2033C52.0053 14.9161 52.1053 14.5905 52.1053 14.2315V9.75435C52.1053 9.47997 52.195 9.25688 52.3694 9.08764C52.5437 8.92097 52.7643 8.83379 53.0258 8.83379C53.2874 8.83379 53.5207 8.91841 53.69 9.08764C53.8592 9.25688 53.9438 9.47997 53.9438 9.75435V16.8368C53.9438 17.0983 53.8592 17.3188 53.69 17.4932C53.5207 17.6676 53.2976 17.7573 53.0233 17.7573C52.7489 17.7573 52.5386 17.6701 52.3668 17.4958C52.2104 17.3394 52.1232 17.1445 52.1078 16.9137C51.8001 17.1804 51.4463 17.3932 51.0488 17.5522C50.5718 17.7419 50.0564 17.8368 49.5154 17.8368V17.8342Z" fill="#101F2F"/>
<path d="M60.3108 17.8189C59.5313 17.8189 58.8159 17.6214 58.1825 17.2317C57.5492 16.8419 57.044 16.2957 56.6824 15.6085C56.3209 14.9238 56.1388 14.152 56.1388 13.3109C56.1388 12.4699 56.3363 11.6955 56.726 11.0108C57.1158 10.3236 57.6594 9.77743 58.3466 9.38253C59.0313 8.98764 59.8006 8.78763 60.6314 8.78763C61.4622 8.78763 62.2263 8.98764 62.9007 9.38253C63.5751 9.77743 64.1187 10.3262 64.5136 11.0108C64.9085 11.698 65.1085 12.4724 65.1085 13.3135V16.8547C65.1085 17.1163 65.0213 17.3368 64.847 17.5112C64.6726 17.6855 64.4521 17.7727 64.1905 17.7727C63.929 17.7727 63.7059 17.6855 63.5341 17.5112C63.3597 17.3368 63.2725 17.1163 63.2725 16.8547V16.5598C62.9315 16.9214 62.5315 17.2137 62.0802 17.4317C61.5365 17.6907 60.9442 17.824 60.3185 17.824L60.3108 17.8189ZM60.6288 10.4364C60.1236 10.4364 59.6595 10.5621 59.2492 10.8082C58.839 11.057 58.5107 11.4032 58.2723 11.8391C58.0338 12.275 57.9133 12.7699 57.9133 13.3109C57.9133 13.852 58.0338 14.3418 58.2723 14.7751C58.5107 15.2059 58.839 15.5495 59.2492 15.7982C59.6595 16.047 60.1236 16.1726 60.6288 16.1726C61.134 16.1726 61.6006 16.047 62.0084 15.7982C62.4186 15.5495 62.7443 15.2059 62.9776 14.7777C63.211 14.3469 63.3289 13.852 63.3289 13.3135C63.3289 12.775 63.211 12.2776 62.9751 11.8416C62.7417 11.4057 62.4161 11.0595 62.0058 10.8108C61.5955 10.5646 61.1314 10.439 60.6262 10.439L60.6288 10.4364Z" fill="#101F2F"/>
<path d="M68.201 17.7548C67.9189 17.7548 67.6958 17.6778 67.5368 17.5265C67.3779 17.3727 67.2958 17.147 67.2958 16.8521V9.75435C67.2958 9.47228 67.3753 9.24663 67.5343 9.09021C67.6933 8.93123 67.9163 8.85174 68.1984 8.85174C68.7908 8.85174 69.1036 9.16457 69.1036 9.75435V9.77743C69.3933 9.4928 69.7344 9.25945 70.1242 9.08252C70.6011 8.86456 71.1191 8.7543 71.6627 8.7543C72.2396 8.7543 72.6986 8.84404 73.032 9.02098C73.3859 9.21073 73.5654 9.4569 73.5654 9.75178C73.5654 9.83897 73.5577 9.90051 73.5448 9.9441C73.4371 10.3236 73.1833 10.5262 72.8063 10.5262C72.7474 10.5262 72.6628 10.5159 72.5474 10.4928C72.132 10.421 71.7909 10.3826 71.5371 10.3826C70.8037 10.3826 70.2062 10.5518 69.76 10.8852C69.319 11.216 69.1062 11.6493 69.1062 12.2109V16.847C69.1062 17.1291 69.0292 17.3522 68.8754 17.5112C68.7215 17.6701 68.4959 17.7522 68.201 17.7522V17.7548Z" fill="#101F2F"/>
<path d="M78.1092 17.8189C77.3296 17.8189 76.6142 17.6214 75.9809 17.2317C75.3475 16.8419 74.8423 16.2957 74.4808 15.6085C74.1192 14.9238 73.9372 14.152 73.9372 13.3109C73.9372 12.4699 74.1346 11.6955 74.5244 11.0108C74.9141 10.3236 75.4578 9.77743 76.145 9.38253C76.8296 8.98764 77.5989 8.78763 78.4297 8.78763C79.2605 8.78763 80.0247 8.98764 80.699 9.38253C81.3734 9.77743 81.9171 10.3262 82.312 11.0108C82.7068 11.698 82.9069 12.4724 82.9069 13.3135V16.8547C82.9069 17.1163 82.8197 17.3368 82.6453 17.5112C82.4709 17.6855 82.2504 17.7727 81.9889 17.7727C81.7273 17.7727 81.5042 17.6855 81.3324 17.5112C81.158 17.3368 81.0709 17.1163 81.0709 16.8547V16.5598C80.7298 16.9214 80.3298 17.2137 79.8785 17.4317C79.3349 17.6907 78.7425 17.824 78.1169 17.824L78.1092 17.8189ZM78.4271 10.4364C77.922 10.4364 77.4579 10.5621 77.0476 10.8082C76.6373 11.057 76.3091 11.4032 76.0706 11.8391C75.8321 12.275 75.7116 12.7699 75.7116 13.3109C75.7116 13.852 75.8321 14.3418 76.0706 14.7751C76.3091 15.2059 76.6373 15.5495 77.0476 15.7982C77.4579 16.047 77.922 16.1726 78.4271 16.1726C78.9323 16.1726 79.399 16.047 79.8067 15.7982C80.217 15.5495 80.5426 15.2059 80.776 14.7777C81.0093 14.3469 81.1273 13.852 81.1273 13.3135C81.1273 12.775 81.0093 12.2776 80.7734 11.8416C80.5401 11.4057 80.2144 11.0595 79.8041 10.8108C79.3939 10.5646 78.9297 10.439 78.4246 10.439L78.4271 10.4364Z" fill="#101F2F"/>
<path d="M92.5407 17.7727C92.2791 17.7727 92.056 17.6855 91.8842 17.5112C91.7099 17.3368 91.6227 17.1163 91.6227 16.8547V12.9494C91.6227 12.1263 91.4022 11.5006 90.9662 11.0826C90.5278 10.6647 89.938 10.4544 89.2072 10.4544C88.7815 10.4544 88.3892 10.5416 88.0404 10.7134C87.6943 10.8852 87.4199 11.116 87.225 11.4057C87.0327 11.6929 86.9327 12.0186 86.9327 12.3776V16.8547C86.9327 17.1163 86.8481 17.3368 86.6788 17.5112C86.5096 17.6855 86.2865 17.7753 86.0121 17.7753C85.7378 17.7753 85.5275 17.6881 85.3557 17.5137C85.1813 17.3394 85.0941 17.1188 85.0941 16.8573V9.77486C85.0941 9.50305 85.1839 9.2774 85.3583 9.10816C85.5326 8.94149 85.7532 8.8543 86.0147 8.8543C86.2763 8.8543 86.5096 8.93892 86.6788 9.10816C86.8327 9.26202 86.9173 9.45946 86.9301 9.69793C87.2378 9.43125 87.5943 9.21586 87.9892 9.05944C88.4661 8.86969 88.9815 8.77481 89.5226 8.77481C90.2688 8.77481 90.9483 8.93892 91.5432 9.26458C92.1407 9.59024 92.615 10.0723 92.9535 10.698C93.2894 11.3211 93.4587 12.0775 93.4587 12.9494V16.8547C93.4587 17.1163 93.3715 17.3368 93.1971 17.5112C93.0228 17.6855 92.8022 17.7727 92.5407 17.7727Z" fill="#101F2F"/>
<path d="M99.1949 17.7548C98.6564 17.7548 98.1589 17.6137 97.7153 17.3342C97.2717 17.0547 96.9204 16.6701 96.6691 16.188C96.4178 15.7085 96.2921 15.1623 96.2921 14.5648V10.7518H95.6716C95.4229 10.7518 95.2152 10.6775 95.0562 10.5313C94.8946 10.3826 94.8152 10.1954 94.8152 9.97487C94.8152 9.73127 94.8972 9.53382 95.0562 9.3851C95.2152 9.23894 95.4203 9.16457 95.6716 9.16457H96.2921V6.98754C96.2921 6.72599 96.3768 6.50803 96.546 6.33879C96.7153 6.16955 96.9332 6.08493 97.1948 6.08493C97.4563 6.08493 97.6743 6.16955 97.8435 6.33879C98.0128 6.50803 98.0974 6.72599 98.0974 6.98754V9.16457H99.3359C99.5846 9.16457 99.7923 9.23894 99.9513 9.3851C100.113 9.53382 100.192 9.73127 100.192 9.97487C100.192 10.1954 100.11 10.3826 99.9513 10.5313C99.7923 10.6775 99.5872 10.7518 99.3359 10.7518H98.0974V14.5648C98.0974 14.9597 98.2076 15.2957 98.423 15.5598C98.6359 15.8213 98.8897 15.947 99.1949 15.947H99.7334C99.9564 15.947 100.146 16.0342 100.3 16.206C100.449 16.3752 100.526 16.5906 100.526 16.8496C100.526 17.1086 100.426 17.3368 100.226 17.506C100.031 17.6701 99.7821 17.7548 99.4795 17.7548H99.1923H99.1949Z" fill="#101F2F"/>
<path d="M106.482 17.8189C105.6 17.8189 104.795 17.624 104.095 17.2419C103.393 16.8598 102.836 16.3188 102.441 15.6367C102.046 14.9572 101.846 14.1725 101.846 13.3109C101.846 12.4494 102.036 11.6647 102.408 10.98C102.78 10.2928 103.308 9.74922 103.975 9.36458C104.641 8.97995 105.403 8.78506 106.244 8.78506C107.085 8.78506 107.806 8.97225 108.413 9.3415C109.021 9.71075 109.495 10.2339 109.821 10.8954C110.144 11.5544 110.308 12.3186 110.308 13.1673C110.308 13.3981 110.229 13.593 110.067 13.7469C109.908 13.8981 109.708 13.9751 109.467 13.9751H103.564C103.693 14.6264 104.011 15.1649 104.511 15.5752C105.044 16.0111 105.705 16.2342 106.482 16.2342C106.788 16.2342 107.108 16.1778 107.439 16.0649C107.77 15.9521 108.047 15.8136 108.257 15.6521C108.424 15.5213 108.621 15.4546 108.847 15.4546C109.072 15.4546 109.259 15.5187 109.398 15.6418C109.611 15.8188 109.721 16.029 109.721 16.2624C109.721 16.4957 109.621 16.6778 109.424 16.8265C109.057 17.1163 108.595 17.3599 108.052 17.5419C107.508 17.724 106.982 17.8189 106.485 17.8189H106.482ZM108.608 12.4853C108.503 11.8621 108.254 11.3544 107.865 10.9749C107.454 10.5749 106.908 10.3698 106.241 10.3698C105.5 10.3698 104.89 10.5749 104.434 10.9775C104.003 11.357 103.716 11.8621 103.582 12.4853H108.608Z" fill="#101F2F"/>
<path d="M116.024 17.8189C115.142 17.8189 114.337 17.624 113.637 17.2419C112.934 16.8598 112.378 16.3188 111.983 15.6367C111.588 14.9572 111.388 14.1725 111.388 13.3109C111.388 12.4494 111.578 11.6647 111.949 10.98C112.321 10.2928 112.849 9.74922 113.516 9.36458C114.183 8.97995 114.944 8.78506 115.785 8.78506C116.627 8.78506 117.347 8.97225 117.955 9.3415C118.563 9.71075 119.037 10.2339 119.363 10.8954C119.686 11.5544 119.85 12.3186 119.85 13.1673C119.85 13.3981 119.77 13.593 119.609 13.7469C119.45 13.8981 119.25 13.9751 119.009 13.9751H113.106C113.234 14.6264 113.552 15.1649 114.052 15.5752C114.585 16.0111 115.247 16.2342 116.024 16.2342C116.329 16.2342 116.65 16.1778 116.98 16.0649C117.311 15.9521 117.588 15.8136 117.798 15.6521C117.965 15.5213 118.163 15.4546 118.388 15.4546C118.614 15.4546 118.801 15.5187 118.939 15.6418C119.152 15.8188 119.263 16.029 119.263 16.2624C119.263 16.4957 119.163 16.6778 118.965 16.8265C118.598 17.1163 118.137 17.3599 117.593 17.5419C117.05 17.724 116.524 17.8189 116.027 17.8189H116.024ZM118.15 12.4853C118.045 11.8621 117.796 11.3544 117.406 10.9749C116.996 10.5749 116.45 10.3698 115.783 10.3698C115.042 10.3698 114.432 10.5749 113.975 10.9775C113.544 11.357 113.257 11.8621 113.124 12.4853H118.15Z" fill="#101F2F"/>
<path d="M125.424 17.8189C124.594 17.8189 123.824 17.6189 123.14 17.224C122.455 16.8291 121.909 16.2829 121.519 15.5957C121.129 14.911 120.934 14.1366 120.934 13.2956C120.934 12.4545 121.117 11.6827 121.478 10.998C121.84 10.3108 122.345 9.7646 122.978 9.37484C123.612 8.98508 124.329 8.78763 125.106 8.78763C125.735 8.78763 126.327 8.91841 126.868 9.17996C127.319 9.39792 127.719 9.69024 128.06 10.0518V6.05672C128.06 5.78235 128.15 5.55926 128.325 5.39002C128.499 5.22335 128.719 5.13616 128.981 5.13616C129.243 5.13616 129.478 5.22078 129.648 5.39002C129.817 5.55926 129.902 5.78235 129.902 6.05416V13.2956C129.902 14.1366 129.702 14.911 129.307 15.5982C128.912 16.2855 128.368 16.8316 127.694 17.2265C127.019 17.6214 126.255 17.8214 125.424 17.8214V17.8189ZM125.424 10.4364C124.919 10.4364 124.455 10.5621 124.045 10.8082C123.635 11.057 123.306 11.4006 123.068 11.8314C122.829 12.2622 122.709 12.7545 122.709 13.2956C122.709 13.8366 122.829 14.3315 123.068 14.7674C123.306 15.2033 123.635 15.5495 124.045 15.7982C124.455 16.047 124.919 16.1726 125.424 16.1726C125.93 16.1726 126.396 16.047 126.804 15.7982C127.214 15.5495 127.54 15.2033 127.773 14.77C128.007 14.3341 128.127 13.8366 128.127 13.2981C128.127 12.7596 128.009 12.2647 127.776 11.8339C127.542 11.4032 127.217 11.0595 126.807 10.8108C126.396 10.5646 125.932 10.439 125.427 10.439L125.424 10.4364Z" fill="#101F2F"/>
<path d="M133.109 18.0086C132.784 18.0086 132.499 17.8881 132.261 17.6496C132.022 17.4137 131.902 17.1265 131.902 16.8009C131.902 16.4752 132.022 16.1752 132.261 15.9367C132.497 15.6982 132.784 15.5777 133.109 15.5777C133.435 15.5777 133.72 15.6982 133.958 15.9367C134.197 16.1752 134.317 16.4649 134.317 16.8009C134.317 17.1368 134.199 17.4112 133.968 17.6471C133.735 17.8855 133.448 18.0061 133.112 18.0061L133.109 18.0086Z" fill="#666666"/>
<path d="M143.761 17.7727C143.5 17.7727 143.277 17.6855 143.105 17.5112C142.93 17.3368 142.843 17.1163 142.843 16.8547V12.9494C142.843 12.1263 142.623 11.5006 142.187 11.0826C141.748 10.6647 141.159 10.4544 140.428 10.4544C140.002 10.4544 139.61 10.5416 139.261 10.7134C138.915 10.8852 138.64 11.116 138.446 11.4057C138.253 11.6929 138.153 12.0186 138.153 12.3776V16.8547C138.153 17.1163 138.069 17.3368 137.899 17.5112C137.73 17.6855 137.507 17.7753 137.233 17.7753C136.958 17.7753 136.748 17.6881 136.576 17.5137C136.402 17.3394 136.315 17.1188 136.315 16.8573V9.77486C136.315 9.50305 136.404 9.2774 136.579 9.10816C136.753 8.94149 136.974 8.8543 137.235 8.8543C137.497 8.8543 137.73 8.93892 137.899 9.10816C138.053 9.26202 138.138 9.45946 138.151 9.69793C138.458 9.43125 138.815 9.21586 139.21 9.05944C139.687 8.86969 140.202 8.77481 140.743 8.77481C141.489 8.77481 142.169 8.93892 142.764 9.26458C143.361 9.59024 143.836 10.0723 144.174 10.698C144.51 11.3211 144.679 12.0775 144.679 12.9494V16.8547C144.679 17.1163 144.592 17.3368 144.418 17.5112C144.243 17.6855 144.023 17.7727 143.761 17.7727Z" fill="#3F7940"/>
<path d="M151.336 17.8189C150.454 17.8189 149.649 17.624 148.949 17.2419C148.246 16.8598 147.69 16.3188 147.295 15.6367C146.9 14.9572 146.7 14.1725 146.7 13.3109C146.7 12.4494 146.89 11.6647 147.261 10.98C147.633 10.2928 148.161 9.74922 148.828 9.36458C149.495 8.97995 150.256 8.78506 151.097 8.78506C151.939 8.78506 152.659 8.97225 153.267 9.3415C153.875 9.71075 154.349 10.2339 154.675 10.8954C154.998 11.5544 155.162 12.3186 155.162 13.1673C155.162 13.3981 155.082 13.593 154.921 13.7469C154.762 13.8981 154.562 13.9751 154.321 13.9751H148.418C148.546 14.6264 148.864 15.1649 149.364 15.5752C149.897 16.0111 150.559 16.2342 151.336 16.2342C151.641 16.2342 151.962 16.1778 152.292 16.0649C152.623 15.9521 152.9 15.8136 153.11 15.6521C153.277 15.5213 153.475 15.4546 153.7 15.4546C153.926 15.4546 154.113 15.5187 154.252 15.6418C154.464 15.8188 154.575 16.029 154.575 16.2624C154.575 16.4957 154.475 16.6778 154.277 16.8265C153.91 17.1163 153.449 17.3599 152.905 17.5419C152.362 17.724 151.836 17.8189 151.339 17.8189H151.336ZM153.462 12.4853C153.357 11.8621 153.108 11.3544 152.718 10.9749C152.308 10.5749 151.762 10.3698 151.095 10.3698C150.354 10.3698 149.744 10.5749 149.287 10.9775C148.856 11.357 148.569 11.8621 148.436 12.4853H153.462Z" fill="#3F7940"/>
<path d="M160.275 17.7548C159.736 17.7548 159.239 17.6137 158.795 17.3342C158.352 17.0547 158 16.6701 157.749 16.188C157.498 15.7085 157.372 15.1623 157.372 14.5648V10.7518H156.752C156.503 10.7518 156.295 10.6775 156.136 10.5313C155.975 10.3826 155.895 10.1954 155.895 9.97487C155.895 9.73127 155.977 9.53382 156.136 9.3851C156.295 9.23894 156.5 9.16457 156.752 9.16457H157.372V6.98754C157.372 6.72599 157.457 6.50803 157.626 6.33879C157.795 6.16955 158.013 6.08493 158.275 6.08493C158.536 6.08493 158.754 6.16955 158.924 6.33879C159.093 6.50803 159.177 6.72599 159.177 6.98754V9.16457H160.416C160.665 9.16457 160.872 9.23894 161.031 9.3851C161.193 9.53382 161.272 9.73127 161.272 9.97487C161.272 10.1954 161.19 10.3826 161.031 10.5313C160.872 10.6775 160.667 10.7518 160.416 10.7518H159.177V14.5648C159.177 14.9597 159.288 15.2957 159.503 15.5598C159.716 15.8213 159.97 15.947 160.275 15.947H160.813C161.036 15.947 161.226 16.0342 161.38 16.206C161.529 16.3752 161.606 16.5906 161.606 16.8496C161.606 17.1086 161.506 17.3368 161.306 17.506C161.111 17.6701 160.862 17.7548 160.56 17.7548H160.272H160.275Z" fill="#3F7940"/>
<path d="M170.198 17.7548C169.996 17.7548 169.811 17.6983 169.65 17.583C169.486 17.4676 169.378 17.3214 169.329 17.1496L167.875 11.7673L166.347 17.1496C166.283 17.3265 166.173 17.4701 166.011 17.583C165.85 17.6958 165.673 17.7548 165.48 17.7548C165.288 17.7548 165.108 17.6983 164.95 17.583C164.788 17.4701 164.675 17.3265 164.616 17.1573L162.265 10.1056C162.219 9.95692 162.196 9.79537 162.196 9.62613C162.196 9.11842 162.465 8.84917 162.972 8.84917C163.201 8.84917 163.393 8.91584 163.544 9.05175C163.69 9.18252 163.811 9.3851 163.901 9.65434L165.506 14.6674L167.024 9.53126C167.083 9.33125 167.188 9.16457 167.337 9.04149C167.488 8.91328 167.686 8.84917 167.924 8.84917C168.162 8.84917 168.342 8.91328 168.496 9.04149C168.645 9.16457 168.75 9.33125 168.809 9.53126L170.145 14.7546L171.776 9.6569C171.937 9.12098 172.252 8.84917 172.706 8.84917C172.958 8.84917 173.152 8.91841 173.286 9.05687C173.417 9.19278 173.483 9.37997 173.483 9.60818C173.483 9.79025 173.455 9.95948 173.396 10.1082L171.047 17.1547C170.986 17.324 170.878 17.4676 170.722 17.5804C170.565 17.6958 170.388 17.7522 170.196 17.7522L170.198 17.7548Z" fill="#3F7940"/>
<path d="M178.66 17.8189C177.799 17.8189 177.017 17.624 176.335 17.2419C175.653 16.8573 175.117 16.3188 174.737 15.6367C174.36 14.9572 174.168 14.1751 174.168 13.3135C174.168 12.4519 174.36 11.6544 174.737 10.9749C175.117 10.2928 175.653 9.75178 176.335 9.36715C177.017 8.98508 177.799 8.7902 178.66 8.7902C179.522 8.7902 180.286 8.98508 180.961 9.36715C181.638 9.75178 182.176 10.2928 182.558 10.9724C182.94 11.6519 183.135 12.4391 183.135 13.3135C183.135 14.1879 182.943 14.9572 182.566 15.6367C182.186 16.3188 181.65 16.8598 180.976 17.2419C180.302 17.6265 179.522 17.8214 178.66 17.8214V17.8189ZM178.66 10.4364C178.142 10.4364 177.673 10.5595 177.263 10.8031C176.855 11.0467 176.53 11.3878 176.296 11.8237C176.063 12.2596 175.945 12.7622 175.945 13.3109C175.945 13.8597 176.063 14.3597 176.296 14.7905C176.53 15.2213 176.855 15.5623 177.263 15.8034C177.673 16.047 178.142 16.1701 178.66 16.1701C179.178 16.1701 179.648 16.047 180.058 15.8034C180.468 15.5598 180.789 15.2213 181.017 14.7905C181.245 14.3597 181.363 13.8597 181.363 13.3109C181.363 12.7622 181.248 12.2596 181.017 11.8211C180.789 11.3852 180.468 11.0442 180.058 10.8006C179.648 10.557 179.178 10.4339 178.66 10.4339V10.4364Z" fill="#3F7940"/>
<path d="M186.235 17.7548C185.953 17.7548 185.73 17.6778 185.571 17.5265C185.412 17.3727 185.33 17.147 185.33 16.8521V9.75435C185.33 9.47228 185.41 9.24663 185.569 9.09021C185.728 8.93379 185.951 8.85174 186.233 8.85174C186.825 8.85174 187.138 9.16457 187.138 9.75435V9.77743C187.428 9.4928 187.769 9.25945 188.158 9.08252C188.635 8.86456 189.153 8.7543 189.697 8.7543C190.274 8.7543 190.733 8.84404 191.066 9.02098C191.42 9.21073 191.6 9.4569 191.6 9.75178C191.6 9.83897 191.592 9.90051 191.579 9.9441C191.471 10.3236 191.215 10.5262 190.841 10.5262C190.782 10.5262 190.697 10.5159 190.582 10.4928C190.166 10.421 189.825 10.3826 189.571 10.3826C188.838 10.3826 188.24 10.5518 187.794 10.8852C187.353 11.216 187.14 11.6493 187.14 12.2109V16.847C187.14 17.1291 187.063 17.3522 186.91 17.5112C186.756 17.6701 186.53 17.7522 186.235 17.7522V17.7548Z" fill="#3F7940"/>
<path d="M199.095 17.8676C198.826 17.8676 198.605 17.7573 198.436 17.5394L195.492 13.8981L194.823 14.4879V16.8675C194.823 17.1291 194.741 17.3445 194.577 17.5086C194.413 17.6727 194.197 17.7548 193.936 17.7548C193.674 17.7548 193.459 17.6727 193.295 17.5086C193.13 17.3445 193.048 17.1291 193.048 16.8675V6.02339C193.048 5.76183 193.13 5.54387 193.295 5.38233C193.456 5.21822 193.671 5.13616 193.936 5.13616C194.2 5.13616 194.413 5.21822 194.577 5.38233C194.741 5.54644 194.823 5.76183 194.823 6.02339V12.2391L198.497 8.95687C198.651 8.80302 198.844 8.72353 199.064 8.72353C199.32 8.72353 199.531 8.82353 199.69 9.01841C199.841 9.16714 199.921 9.35946 199.921 9.57998C199.921 9.8364 199.821 10.0467 199.626 10.2057L196.787 12.7366L199.8 16.4342C199.931 16.5778 200 16.7624 200 16.9804C200 17.247 199.89 17.4727 199.674 17.6522C199.495 17.7958 199.303 17.8676 199.097 17.8676H199.095Z" fill="#3F7940"/>
</g>
<defs>
<clipPath id="clip0_1_15">
<rect width="200" height="26.4962" fill="white"/>
</clipPath>
</defs>
</svg>
